<?xml version="1.0" standalone="no"?>
<!DOCTYPE svg PUBLIC "-//W3C//DTD SVG 20010904//EN"
 "http://www.w3.org/TR/2001/REC-SVG-20010904/DTD/svg10.dtd">
<svg version="1.0" xmlns="http://www.w3.org/2000/svg"
 width="260.000000pt" height="260.000000pt" viewBox="0 0 260.000000 260.000000"
 preserveAspectRatio="xMidYMid meet">
<metadata>
Created by potrace 1.14, written by Peter Selinger 2001-2017
</metadata>
<g transform="translate(0.000000,260.000000) scale(0.100000,-0.100000)"
fill="#000000" stroke="none">
<path d="M457 2255 c-242 -62 -379 -253 -364 -510 7 -123 35 -194 104 -267 33
-33 82 -71 124 -93 73 -38 200 -85 231 -85 32 0 174 -59 217 -90 84 -62 107
-181 49 -267 -73 -109 -342 -119 -536 -19 -16 8 -52 33 -81 56 -29 23 -54 40
-56 38 -2 -2 -22 -54 -44 -115 l-39 -110 36 -36 c48 -47 181 -111 285 -138
109 -29 275 -29 364 -1 85 27 183 84 225 131 72 78 118 209 118 331 0 130 -30
212 -110 302 -59 67 -123 100 -305 159 -176 57 -263 98 -302 142 -78 89 -47
229 64 294 41 24 60 28 144 31 117 5 178 -10 297 -74 58 -31 84 -41 87 -32 3
7 20 59 39 116 l33 103 -31 23 c-111 81 -222 117 -376 122 -79 3 -133 -1 -173
-11z"/>
<path d="M1313 1693 c4 -585 5 -598 52 -736 21 -61 78 -160 122 -207 35 -40
121 -95 189 -122 70 -28 193 -41 270 -29 99 16 133 27 195 64 31 19 63 36 71
39 8 4 31 26 51 50 92 112 150 264 166 437 11 111 15 980 5 1029 l-6 32 -114
0 -114 0 0 -489 c0 -523 -5 -604 -47 -708 -51 -128 -135 -183 -278 -183 -143
0 -227 55 -278 183 -42 104 -47 185 -47 708 l0 489 -121 0 -120 0 4 -557z"/>
</g>
</svg>
